<svg width="214" height="71" viewBox="0 0 214 71" fill="none" xmlns="http://www.w3.org/2000/svg">
<g clip-path="url(#clip0_9_611)">
<path d="M202.865 62.9066C176.794 77.7111 154.24 43.6185 122.454 70.7421V63.6156C156.103 37.86 178.005 72.2176 202.865 56.3745V62.9066Z" fill="#008D39"/>
<path d="M128.735 47.3429V0H122.153V58.688C162.348 30.8481 173.736 72.5471 213.358 47.3071V39.801C181.694 66.0795 165.013 29.6018 128.735 47.35V47.3429Z" fill="white"/>
<path d="M138.956 32.3164V0H132.374V41.7921C154.742 27.933 178.786 54.319 203.109 41.6274V34.3719C181.292 47.3644 160.923 25.1254 138.956 32.3164Z" fill="#009AB9"/>
<path d="M4.87753 24.2659V44.6785H14.5395V48.5891H0.372437V24.2659H4.87753Z" fill="#009AB9"/>
<path d="M18.7939 39.0346V24.2659H23.299V39.0346C23.299 42.9166 25.2829 44.8504 29.2508 44.8504C33.2188 44.8504 35.2027 42.9094 35.2027 39.0346V24.2659H39.7078V39.0346C39.7078 45.5237 36.2198 48.7682 29.2437 48.7682C22.2676 48.7682 18.7795 45.5237 18.7795 39.0346H18.7939Z" fill="#009AB9"/>
<path d="M49.3268 24.2659V48.5891H44.8217V24.2659H49.3268ZM66.4376 24.2659L56.0594 35.611L67.5262 48.5891H61.2807L51.8766 37.2226V34.3003L60.9298 24.2659H66.4447H66.4376Z" fill="#009AB9"/>
<path d="M85.8904 24.2659V28.1479H73.7074V34.2717H85.3103V38.3041H73.6572V44.6857H86.1268V48.5963H69.2381V24.2731H85.8904V24.2659Z" fill="#009AB9"/>
<path d="M90.2953 48.5963V24.2731H94.8004L107.642 41.9998V24.2731H111.983V48.5963H107.478L94.6356 30.4971V48.5963H90.2953Z" fill="#009AB9"/>
<path d="M16.6237 19.4099C14.9047 20.0616 12.9638 20.3839 10.7792 20.3839C3.63842 20.3839 0.0715942 16.9245 0.0715942 10.0201C0.0715942 3.48088 3.63842 0.207703 10.7792 0.207703C12.9566 0.207703 14.9047 0.530007 16.6237 1.18178V4.51941C14.9047 3.77453 13.0497 3.40926 11.0586 3.40926C6.28132 3.40926 3.89627 5.61525 3.89627 10.0201C3.89627 14.7973 6.28132 17.1824 11.0586 17.1824C13.0497 17.1824 14.9047 16.8099 16.6237 16.0722V19.4099Z" fill="white"/>
<path d="M33.7201 0.350952V3.52386H23.7573V8.53031H33.2474V11.825H23.7215V17.0391H33.9207V20.2407H20.1046V0.350952H33.7273H33.7201Z" fill="white"/>
<path d="M37.3228 20.2407V0.350952H41.0114L51.5114 14.8475V0.350952H55.0567V20.2407H51.3681L40.8682 5.4362V20.2407H37.3228Z" fill="white"/>
<path d="M72.2462 0.350952V3.55251H66.545V20.2479H62.8564V3.54534H57.1552V0.350952H72.2462Z" fill="white"/>
<path d="M74.3304 20.212V0.350952H83.3693C87.4303 0.350952 89.4644 2.12721 89.4644 5.67971C89.4644 8.07909 87.8815 10.0702 84.723 11.6459L91.0258 20.2407H86.3775L80.3253 11.5743V9.89116C83.8492 9.28952 85.6111 7.92152 85.6111 5.78715C85.6111 4.31887 84.7874 3.58832 83.1329 3.58832H78.0835V20.212H74.3304Z" fill="white"/>
<path d="M92.0643 10.3209C92.0643 3.58115 95.3948 0.207703 102.056 0.207703C108.717 0.207703 111.89 3.58115 111.89 10.3209C111.89 17.0606 108.609 20.3768 102.056 20.3768C95.5022 20.3768 92.3651 17.0248 92.0643 10.3209ZM102.056 17.1824C106.059 17.1824 108.065 14.869 108.065 10.2421C108.065 5.61525 106.059 3.40926 102.056 3.40926C98.052 3.40926 95.8961 5.68687 95.8961 10.2421C95.8961 14.7973 97.9517 17.1824 102.056 17.1824Z" fill="white"/>
<path d="M112.019 51.5687H0.107422V52.9152H112.019V51.5687Z" fill="#008D39"/>
<path d="M0 62.3265V56.7614H1.98396C3.80319 56.7614 4.70564 57.6352 4.70564 59.3899C4.70564 61.3452 3.7817 62.3265 1.94099 62.3265H0ZM1.94815 61.9755C3.49521 61.9755 4.26158 61.116 4.26158 59.3899C4.26158 57.8715 3.48805 57.1123 1.94815 57.1123H0.408252V61.9755H1.94815Z" fill="white"/>
<path d="M9.87684 56.7614V57.1123H6.63231V59.3326H9.74792V59.6836H6.63231V61.9827H9.93414V62.3336H6.22406V56.7685H9.87684V56.7614Z" fill="white"/>
<path d="M17.6837 56.7614V57.1123H14.4392V59.3326H17.5548V59.6836H14.4392V61.9827H17.741V62.3336H14.0309V56.7685H17.6837V56.7614Z" fill="white"/>
<path d="M19.3454 62.1331V61.7033C19.9327 61.911 20.5702 62.0113 21.2721 62.0113C22.4395 62.0113 23.0197 61.5672 23.0197 60.6863C23.0197 60.0345 22.6401 59.7122 21.8809 59.7122H20.7349C19.6964 59.7122 19.1807 59.2466 19.1807 58.3084C19.1807 57.2484 19.9399 56.7112 21.4583 56.7112C22.0814 56.7112 22.683 56.79 23.2703 56.9475V57.3343C22.6902 57.1552 22.0814 57.0621 21.4583 57.0621C20.212 57.0621 19.5889 57.4776 19.5889 58.3084C19.5889 58.9816 19.9685 59.3183 20.7349 59.3183H21.8809C22.9122 59.3183 23.4279 59.7695 23.4279 60.6791C23.4279 61.7964 22.7117 62.3551 21.2721 62.3551C20.5702 62.3551 19.9255 62.2763 19.3454 62.1187V62.1331Z" fill="white"/>
<path d="M28.5848 56.7614V57.1123H26.6796V62.3265H26.2713V57.1123H24.402V56.7614H28.5848Z" fill="white"/>
<path d="M29.7523 62.3265V56.7614H32.0514C33.0612 56.7614 33.5626 57.2054 33.5626 58.0935C33.5626 58.8671 33.0183 59.4114 31.9224 59.7337L33.799 62.3265H33.2403L31.3924 59.748V59.4687C32.5312 59.304 33.1042 58.8528 33.1042 58.1294C33.1042 57.4633 32.7318 57.1266 31.9869 57.1266H30.1677V62.3265H29.7594H29.7523Z" fill="white"/>
<path d="M35.0022 62.3265H34.5653L37.0864 56.7614H37.5735L40.1018 62.3265H39.6147L38.7911 60.4571H36.449L36.6066 60.1062H38.6335L37.3013 57.0765L35.0022 62.3193V62.3265Z" fill="white"/>
<path d="M44.3777 56.7614V57.1123H42.4725V62.3265H42.0642V57.1123H40.1949V56.7614H44.3777Z" fill="white"/>
<path d="M49.1979 56.7614V57.1123H45.9534V59.3326H49.069V59.6836H45.9534V61.9827H49.2552V62.3336H45.5452V56.7685H49.1979V56.7614Z" fill="white"/>
<path d="M55.1784 62.1116C54.7057 62.2835 54.2044 62.3694 53.6887 62.3694C51.6976 62.3694 50.702 61.4025 50.702 59.4687C50.702 57.6423 51.6761 56.7255 53.6171 56.7255C54.1471 56.7255 54.6699 56.8043 55.1713 56.9619V57.3128C54.6628 57.1553 54.1757 57.0765 53.6958 57.0765C51.9697 57.0765 51.1102 57.8715 51.1102 59.4687C51.1102 61.1662 51.9482 62.0185 53.6242 62.0185C53.968 62.0185 54.3476 61.9612 54.7702 61.8466V59.7982H55.1784V62.1116Z" fill="white"/>
<path d="M57.4704 56.7614V62.3265H57.0621V56.7614H57.4704Z" fill="white"/>
<path d="M59.3612 62.3265H58.9243L61.4455 56.7614H61.9325L64.4608 62.3265H63.9737L63.1501 60.4571H60.808L60.9656 60.1062H62.9925L61.6603 57.0765L59.3612 62.3193V62.3265Z" fill="white"/>
<path d="M65.6856 62.1331V61.7033C66.2729 61.911 66.9103 62.0113 67.6122 62.0113C68.7797 62.0113 69.3598 61.5672 69.3598 60.6863C69.3598 60.0345 68.9802 59.7122 68.221 59.7122H67.0751C66.0365 59.7122 65.5208 59.2466 65.5208 58.3084C65.5208 57.2484 66.28 56.7112 67.7985 56.7112C68.4216 56.7112 69.0232 56.79 69.6105 56.9475V57.3343C69.0304 57.1552 68.4216 57.0621 67.7985 57.0621C66.5522 57.0621 65.9291 57.4776 65.9291 58.3084C65.9291 58.9816 66.3087 59.3183 67.0751 59.3183H68.221C69.2524 59.3183 69.7681 59.7695 69.7681 60.6791C69.7681 61.7964 69.0519 62.3551 67.6122 62.3551C66.9103 62.3551 66.2657 62.2763 65.6856 62.1187V62.1331Z" fill="white"/>
<path d="M77.4246 56.7614V57.1123H74.1801V59.3326H77.2957V59.6836H74.1801V61.9827H77.4819V62.3336H73.7718V56.7685H77.4246V56.7614Z" fill="white"/>
<path d="M79.1292 62.3265V56.7614H79.6521L83.3693 61.6317V56.7614H83.7417V62.3265H83.4123L79.5016 57.2197V62.3265H79.1292Z" fill="white"/>
<path d="M87.8815 62.3265H87.4446L89.9658 56.7614H90.4528L92.9811 62.3265H92.4941L91.6704 60.4571H89.3283L89.4859 60.1062H91.5128L90.1806 57.0765L87.8815 62.3193V62.3265Z" fill="white"/>
<path d="M98.5248 62.1116C98.052 62.2835 97.5507 62.3694 97.035 62.3694C95.0439 62.3694 94.0483 61.4025 94.0483 59.4687C94.0483 57.6423 95.0224 56.7255 96.9634 56.7255C97.4934 56.7255 98.0162 56.8043 98.5176 56.9619V57.3128C98.0091 57.1553 97.522 57.0765 97.0422 57.0765C95.316 57.0765 94.4566 57.8715 94.4566 59.4687C94.4566 61.1662 95.2946 62.0185 96.9705 62.0185C97.3143 62.0185 97.6939 61.9612 98.1165 61.8466V59.7982H98.5248V62.1116Z" fill="white"/>
<path d="M100.208 60.1778V56.7614H100.616V60.1778C100.616 61.4025 101.225 62.0113 102.443 62.0113C103.66 62.0113 104.269 61.4025 104.269 60.1778V56.7614H104.677V60.1778C104.677 61.6389 103.932 62.3623 102.443 62.3623C100.953 62.3623 100.208 61.6317 100.208 60.1778Z" fill="white"/>
<path d="M106.382 62.3265H105.945L108.466 56.7614H108.953L111.481 62.3265H110.994L110.171 60.4571H107.829L107.986 60.1062H110.013L108.681 57.0765L106.382 62.3193V62.3265Z" fill="white"/>
<path d="M15.8932 65.3919H16.3802L18.1851 68.6221L20.0402 65.3919H20.4914L18.4072 69.0089V70.957H17.9989V69.0089L15.9004 65.3919H15.8932Z" fill="white"/>
<path d="M24.1872 70.957V65.3919H24.5954L27.1022 70.4771L29.4586 65.3919H29.8311V70.957H29.4586V66.1439L27.2455 70.957H26.9088L24.5524 66.1081V70.957H24.18H24.1872Z" fill="white"/>
<path d="M35.2314 65.3919V65.7429H31.9869V67.9632H35.1025V68.3141H31.9869V70.6132H35.2887V70.9642H31.5786V65.3991H35.2314V65.3919Z" fill="white"/>
<path d="M36.9361 70.957V65.3919H38.92C40.7392 65.3919 41.6417 66.2657 41.6417 68.0205C41.6417 69.9758 40.7178 70.957 38.877 70.957H36.9289H36.9361ZM38.8842 70.6061C40.4313 70.6061 41.1976 69.7466 41.1976 68.0205C41.1976 66.5021 40.4241 65.7429 38.8842 65.7429H37.3443V70.6061H38.8842Z" fill="white"/>
<path d="M43.7617 65.3919V70.957H43.3535V65.3919H43.7617Z" fill="white"/>
<path d="M45.5093 68.1852C45.5093 66.3015 46.4404 65.3561 48.3026 65.3561C50.1648 65.3561 51.053 66.3015 51.053 68.1852C51.053 70.0689 50.1362 71 48.3026 71C46.4691 71 45.5093 70.0617 45.5093 68.1852ZM48.3026 70.649C49.8354 70.649 50.6089 69.8182 50.6089 68.1637C50.6089 66.5092 49.8425 65.707 48.3026 65.707C46.7627 65.707 45.9534 66.5235 45.9534 68.1637C45.9534 69.8039 46.7341 70.649 48.3026 70.649Z" fill="white"/>
<path d="M55.0065 70.957H54.5696L57.0908 65.3919H57.5778L60.1061 70.957H59.6191L58.7954 69.0877H56.4533L56.6109 68.7367H58.6378L57.3056 65.707L55.0065 70.9499V70.957Z" fill="white"/>
<path d="M61.3595 70.957V65.3919H61.7678L64.2746 70.4771L66.631 65.3919H67.0034V70.957H66.631V66.1439L64.4178 70.957H64.0812L61.7248 66.1081V70.957H61.3524H61.3595Z" fill="white"/>
<path d="M68.751 70.957V65.3919H71.1218C72.1818 65.3919 72.7118 65.8216 72.7118 66.6883C72.7118 67.3186 72.325 67.777 71.5587 68.0491C72.3752 68.1852 72.7834 68.6221 72.7834 69.3527C72.7834 70.427 72.2033 70.957 71.043 70.957H68.751ZM71 70.6061C71.8953 70.6061 72.3465 70.1907 72.3465 69.3598C72.3465 68.6221 71.7879 68.2568 70.6634 68.2568H70.3554V67.9775C71.6518 67.8629 72.3035 67.4403 72.3035 66.7098C72.3035 66.058 71.9025 65.7357 71.1074 65.7357H69.1665V70.5989H71.0072L71 70.6061Z" fill="white"/>
<path d="M75.0324 65.3919V70.957H74.6241V65.3919H75.0324Z" fill="white"/>
<path d="M80.6261 65.3919V65.7429H77.3816V67.9632H80.4972V68.3141H77.3816V70.6132H80.6834V70.9642H76.9734V65.3991H80.6261V65.3919Z" fill="white"/>
<path d="M82.3307 70.957V65.3919H82.8536L86.5708 70.2623V65.3919H86.9433V70.957H86.6138L82.7032 65.8503V70.957H82.3307Z" fill="white"/>
<path d="M92.2936 65.3919V65.7429H90.3884V70.957H89.9801V65.7429H88.1108V65.3919H92.2936Z" fill="white"/>
<path d="M97.1066 65.3919V65.7429H93.8621V67.9632H96.9777V68.3141H93.8621V70.6132H97.1639V70.9642H93.4539V65.3991H97.1066V65.3919Z" fill="white"/>
</g>
<defs>
<clipPath id="clip0_9_611">
<rect width="213.365" height="71" fill="white"/>
</clipPath>
</defs>
</svg>
